PathFileType	4	(X/Y/Z)	C:\Users\Basilio\Documents\Thesis Gigler\squatting_fais\c3dfiles\077\SJ_pre4\markers_experimental.trc
DataRate	CameraRate	NumFrames	NumMarkers	Units	OrigDataRate	OrigDataStartFrame	OrigNumFrames
200.000000	200.000000	4	60	mm	200.000000	1023	1365
Frame#	Time	FHD			LBHD			RBHD			C7			T10			CLAV			LSHO			LUUPA			LMUPA			LDUPA			LLEP			LMEP			LRAD			LUL			LRFIN			RSHO			RUPA1			RMUPA			RDUPA			RLEP			RMEP			RRAD			RUL			RUFIN			LASI			RASI			USACR			LSACR			RSACR			LTHI1			LTHI2			LTHI3			LTHI4			LLFC			LMFC			LTIB1			LTIB2			LTIB3			LTIB4			LLMAL			LHEE			LMT1			LMT2			LMT5			RTHI			RTHI2			RTHI3			RTHI4			RLFC			RMFC			RTIB1			RTIB2			RTIB3			RTIB4			RLMAL			RMMAL			RHEE			RMT1			RMT2			RMT5			
		X1	Y1	Z1	X2	Y2	Z2	X3	Y3	Z3	X4	Y4	Z4	X5	Y5	Z5	X6	Y6	Z6	X7	Y7	Z7	X8	Y8	Z8	X9	Y9	Z9	X10	Y10	Z10	X11	Y11	Z11	X12	Y12	Z12	X13	Y13	Z13	X14	Y14	Z14	X15	Y15	Z15	X16	Y16	Z16	X17	Y17	Z17	X18	Y18	Z18	X19	Y19	Z19	X20	Y20	Z20	X21	Y21	Z21	X22	Y22	Z22	X23	Y23	Z23	X24	Y24	Z24	X25	Y25	Z25	X26	Y26	Z26	X27	Y27	Z27	X28	Y28	Z28	X29	Y29	Z29	X30	Y30	Z30	X31	Y31	Z31	X32	Y32	Z32	X33	Y33	Z33	X34	Y34	Z34	X35	Y35	Z35	X36	Y36	Z36	X37	Y37	Z37	X38	Y38	Z38	X39	Y39	Z39	X40	Y40	Z40	X41	Y41	Z41	X42	Y42	Z42	X43	Y43	Z43	X44	Y44	Z44	X45	Y45	Z45	X46	Y46	Z46	X47	Y47	Z47	X48	Y48	Z48	X49	Y49	Z49	X50	Y50	Z50	X51	Y51	Z51	X52	Y52	Z52	X53	Y53	Z53	X54	Y54	Z54	X55	Y55	Z55	X56	Y56	Z56	X57	Y57	Z57	X58	Y58	Z58	X59	Y59	Z59	X60	Y60	Z60	

1024	5.115	-298.0063476562501	1841.40087890625	-960.9954833984377	-426.8270263671876	1718.298583984375	-1029.835571289063	-433.8526916503907	1715.810302734375	-883.7974243164065	-482.846893310547	1595.71923828125	-961.9063110351565	-519.6823120117189	1258.933349609375	-947.4538574218752	-310.7686462402344	1539.217407226563	-962.7036743164065	-369.4267272949219	1573.223754882813	-1153.828979492188	-413.4841308593751	1432.091796875	-1320.702026367188	-380.6464233398438	1392.264404296875	-1321.500854492188	-424.303924560547	1380.163818359375	-1363.8076171875	-422.1495666503907	1316.630737304688	-1395.33154296875	-502.6456298828126	1301.780517578125	-1365.319580078125	-420.8324279785157	1096.693603515625	-1181.929931640625	-381.9081420898438	1047.963012695313	-1233.749389648438	-374.3561096191407	1075.372802734375	-1126.235473632813	-331.8547363281251	1579.800903320313	-772.5771484375002	-393.3560485839845	1445.758056640625	-593.1264038085939	-369.0536804199219	1402.277221679688	-595.7713012695314	-407.9068298339845	1390.461547851563	-551.6782836914064	-412.7114868164064	1326.160400390625	-524.5980224609376	-497.1876525878907	1316.047241210938	-550.8886718750001	-431.4069213867189	1092.343994140625	-705.9208374023439	-369.6919250488282	1060.8955078125	-665.3231811523439	-378.4519348144532	1091.380493164063	-760.6267089843751	-342.2437133789063	1058.783203125	-1089.277221679688	-337.4606628417969	1068.303100585938	-812.2359619140627	-537.6330566406251	1149.04248046875	-941.2431640625002	-548.1489868164064	1120.768920898438	-969.8092041015627	-548.0808715820314	1116.806030273438	-915.142517089844	-445.6473693847657	850.6767578125002	-1160.2587890625	-420.3773193359376	770.427185058594	-1171.075317382813	-372.4454956054688	771.497985839844	-1173.0634765625	-447.8108215332032	718.7937011718751	-1154.490478515625	-417.9105529785157	571.0543823242189	-1153.864013671875	-381.5560302734376	531.2758178710939	-1030.563232421875	-372.3850097656251	341.9672851562501	-1129.875366210938	-418.6489257812501	306.8413085937501	-1197.93896484375	-380.2868041992188	300.6674194335938	-1173.080810546875	-378.5558166503907	217.3843383789063	-1152.376708984375	-440.947479248047	102.6978302001953	-1206.992919921875	-475.363494873047	38.2722282409668	-1153.703857421875	-266.6198425292969	93.32810974121095	-1182.846435546875	-276.4024047851563	100.8804168701172	-1223.913208007813	-394.6926269531251	107.4683837890625	-1128.900756835938	-447.749725341797	742.5383911132814	-719.1489257812501	-409.570526123047	688.4074707031251	-705.0217285156251	-375.5030212402344	689.6583251953126	-706.7731933593751	-433.2915954589845	610.9332885742189	-717.1257934570314	-425.0173950195314	543.1614990234376	-707.1423950195314	-370.8411560058594	513.6085815429689	-821.1577148437502	-365.2892761230469	410.157440185547	-690.4241333007814	-430.0439758300782	332.2828674316407	-655.9526367187501	-385.0034790039064	327.8827514648438	-668.7349243164064	-369.5830993652344	279.2514038085938	-698.9749755859376	-429.2258605957032	102.1846466064453	-636.5941162109376	-386.4343261718751	100.864013671875	-718.9851684570314	-468.8995666503907	37.07783508300782	-694.3630371093751	-258.1377563476563	103.3342819213867	-636.5817260742189	-272.6195983886719	105.2221374511719	-601.5400390625001	-294.4486083984376	84.10149383544923	-556.4061279296876	
1025	5.12	-297.6600341796876	1840.881225585938	-960.7659301757815	-426.6904907226564	1717.9375	-1029.71484375	-433.9366149902345	1715.831665039063	-883.7858886718752	-482.9065856933595	1595.705200195313	-961.819274902344	-519.7774658203126	1258.9169921875	-947.4578247070315	-310.9324645996094	1539.174194335938	-962.6920166015627	-369.6606750488282	1572.990234375	-1153.791748046875	-413.7412719726564	1431.878784179688	-1320.553466796875	-380.9264831542969	1392.161743164063	-1321.352661132813	-424.5192260742189	1379.977661132813	-1363.61328125	-422.3375244140626	1316.38525390625	-1395.240234375	-502.7513122558595	1301.337158203125	-1365.190063476563	-420.6519470214845	1096.29833984375	-1181.96826171875	-381.7802124023438	1047.58984375	-1233.7890625	-373.9048767089844	1075.239135742188	-1126.456176757813	-332.0477294921876	1579.5185546875	-772.464050292969	-393.8111877441407	1445.148681640625	-593.2408447265626	-369.3666687011719	1401.626708984375	-595.7785644531251	-408.2772216796876	1389.978759765625	-551.6944580078126	-413.0906677246095	1325.6171875	-524.6418457031251	-497.5476684570314	1315.564331054688	-550.9339599609376	-431.1927795410157	1092.118530273438	-705.9610595703126	-369.8845214843751	1060.411376953125	-665.3311157226564	-378.5584106445313	1090.996337890625	-760.5789184570314	-342.0711364746094	1058.409790039063	-1089.364135742188	-337.5382690429688	1067.939453125	-812.1959228515627	-537.7091674804689	1149.016845703125	-941.3963623046877	-548.2131347656251	1120.723876953125	-969.9616699218752	-548.1264648437501	1116.7333984375	-915.268981933594	-445.5967102050782	850.7344970703127	-1160.440185546875	-420.2217407226564	770.372009277344	-1170.9072265625	-372.3335266113282	771.484558105469	-1173.064697265625	-447.6882934570314	718.7725830078126	-1154.543334960938	-417.7434387207032	571.0586547851564	-1153.813598632813	-381.3617248535157	531.2846679687501	-1030.607421875	-372.2752685546876	341.8542175292969	-1129.826904296875	-418.5101623535157	306.8301086425782	-1197.98193359375	-380.2041931152344	300.6267700195313	-1173.083740234375	-378.1435852050782	217.0712432861329	-1152.117919921875	-440.810272216797	102.6822586059571	-1207.025756835938	-475.3608398437501	38.28313446044923	-1153.71484375	-266.5974426269532	93.20092010498048	-1182.824584960938	-276.2527160644532	100.7216796875	-1223.87255859375	-394.6431884765626	107.4418640136719	-1128.949829101563	-447.830291748047	742.3882446289064	-719.3257446289064	-409.6492004394532	688.3502807617189	-705.1343994140626	-375.6716613769532	689.5087280273439	-706.9197998046876	-433.3985290527345	610.9123535156251	-717.2226562500001	-425.2203674316407	543.0850830078126	-707.2532958984376	-370.8863830566407	513.6356201171876	-821.260192871094	-365.4042358398438	410.1275634765626	-690.5416259765626	-430.1157836914064	332.2437438964844	-656.0158081054689	-385.0508117675782	327.8424072265626	-668.8199462890626	-369.6614379882813	279.2532043457032	-699.0995483398439	-429.1178283691407	102.1547164916992	-636.5399780273439	-386.675018310547	100.8742828369141	-719.0921630859376	-468.9854431152345	37.15826416015626	-694.2912597656251	-258.0898742675782	103.246208190918	-636.6379394531251	-272.5504760742188	105.1879272460938	-601.5303344726564	-294.4395141601563	84.0198440551758	-556.4526367187501	
1026	5.125	-297.7534484863282	1840.92578125	-960.744812011719	-426.8481750488282	1717.763305664063	-1029.681884765625	-434.0031738281251	1715.875610351563	-883.782409667969	-483.0137634277345	1595.648071289063	-961.7320556640627	-519.8259277343751	1258.911376953125	-947.541687011719	-311.0744628906251	1539.030029296875	-962.618347167969	-369.9008483886719	1572.821533203125	-1153.721557617188	-414.162322998047	1431.719360351563	-1320.466430664063	-381.2936706542969	1392.1337890625	-1321.314575195313	-424.7769470214845	1379.796630859375	-1363.456909179688	-422.5196533203126	1316.172973632813	-1395.157348632813	-502.9170837402345	1300.842407226563	-1365.0498046875	-420.4506225585939	1095.964111328125	-1181.994873046875	-381.4235229492188	1047.051513671875	-1233.689208984375	-373.5701904296876	1074.969360351563	-1126.461791992188	-332.1082763671876	1579.182739257813	-772.372497558594	-394.1935119628907	1444.729736328125	-593.1127929687501	-369.7508239746094	1401.12548828125	-595.7821044921876	-408.590545654297	1389.553955078125	-551.7362060546876	-413.4407958984376	1325.320434570313	-524.6502075195314	-498.2614135742189	1315.09619140625	-550.9908447265626	-431.2253723144532	1091.723876953125	-706.0096435546876	-369.5636596679688	1060.268188476563	-664.8547973632814	-378.6654052734376	1090.57861328125	-760.5477905273439	-341.8818054199219	1057.963623046875	-1089.464111328125	-337.6500854492188	1067.6611328125	-812.2373046875002	-537.7281494140626	1148.983520507813	-941.511657714844	-548.2860717773439	1120.61572265625	-970.0911254882815	-548.1671142578126	1116.632080078125	-915.3870849609377	-445.4429626464845	850.6802368164065	-1160.510986328125	-420.1868896484376	770.7315063476565	-1171.05517578125	-372.3424072265626	771.5017089843752	-1173.069946289063	-447.6619567871095	718.7573242187501	-1154.57763671875	-417.7790527343751	571.0680541992189	-1153.850463867188	-381.2337341308594	531.2248535156251	-1030.670043945313	-372.1753540039063	341.8355102539063	-1129.7900390625	-417.5143127441407	306.4000244140626	-1197.826171875	-380.0936279296876	300.6519165039063	-1173.087768554688	-378.4708251953126	217.3382720947266	-1152.395385742188	-440.746063232422	102.6264114379883	-1207.05517578125	-475.363983154297	38.30688095092774	-1153.708374023438	-266.5865783691407	93.15999603271486	-1182.805297851563	-276.2375488281251	100.6595230102539	-1223.83642578125	-394.6087646484376	107.4287567138672	-1128.897094726563	-447.9024658203126	742.4252319335939	-719.4038085937501	-409.7863159179689	688.3347778320314	-705.2460327148439	-375.8159484863282	689.3770141601564	-707.0345458984376	-433.5980529785157	610.8526611328126	-717.2912597656251	-425.3215332031251	543.0592651367189	-707.3377075195314	-370.9699401855469	513.5925292968751	-821.3177490234377	-365.4558715820313	410.1143798828126	-690.6243896484376	-430.1567993164064	332.2774658203126	-656.0674438476564	-385.1089782714845	327.8769226074219	-668.8933715820314	-369.5835876464844	279.1288757324219	-699.0604248046876	-429.1321105957032	102.130973815918	-636.5533447265626	-386.5527954101564	100.8110122680664	-719.0992431640626	-468.9083251953126	37.10107803344727	-694.3286132812501	-257.9914550781251	103.263786315918	-636.6911010742189	-272.5238037109376	105.140869140625	-601.5957031250001	-294.3825683593751	84.00222778320314	-556.4718627929689	
1027	5.13	-297.6759643554688	1840.764404296875	-960.6729736328127	-426.9419250488282	1718.171020507813	-1029.7060546875	-434.0275268554689	1715.898315429688	-883.7297363281252	-483.1018676757814	1595.585083007813	-961.6064453125002	-519.9118652343751	1258.955322265625	-947.5742187500002	-311.1489257812501	1538.94189453125	-962.5480957031252	-370.2171020507813	1572.711547851563	-1153.675537109375	-414.5021362304689	1431.488037109375	-1320.27587890625	-381.4952392578126	1391.932983398438	-1321.3408203125	-424.9062500000001	1379.66259765625	-1363.366577148438	-422.6912231445314	1315.935668945313	-1395.074340820313	-502.8549804687501	1300.661010742188	-1364.947143554688	-420.3147583007814	1095.582153320313	-1182.108520507813	-381.4546203613282	1046.21630859375	-1234.009521484375	-373.3252868652344	1074.864501953125	-1126.46142578125	-332.3232116699219	1578.918212890625	-772.275573730469	-394.4985961914064	1444.406494140625	-593.0738525390626	-369.9699096679688	1400.96240234375	-595.6981201171876	-409.0880737304689	1389.025756835938	-551.7943725585939	-413.7790832519532	1324.846923828125	-524.6842041015626	-498.6693725585939	1314.4794921875	-551.2246093750001	-431.4770507812501	1091.314086914063	-706.0377807617189	-369.7374267578126	1059.818359375	-664.9177246093751	-378.8281555175782	1090.265625	-760.5534057617189	-341.6251220703126	1057.621337890625	-1089.520629882813	-337.6922912597657	1067.404418945313	-812.1821289062502	-537.8079833984376	1148.947509765625	-941.6211547851565	-548.3029174804689	1120.541137695313	-970.2546386718752	-548.1435546875001	1116.713012695313	-915.4981689453127	-445.2598266601564	850.7508544921877	-1160.531982421875	-420.1132202148439	770.7860107421877	-1171.148559570313	-372.2085876464844	771.4502563476565	-1173.04833984375	-447.6540832519532	718.7894287109376	-1154.57958984375	-417.7550659179689	571.0468750000001	-1153.8837890625	-381.1386413574219	531.1121826171876	-1030.735595703125	-372.1196289062501	341.8131713867188	-1129.808837890625	-418.3410644531251	306.6914062500001	-1197.973754882813	-380.0973510742188	300.6542968750001	-1173.09033203125	-378.0814514160157	217.0254974365235	-1152.130493164063	-440.6617431640626	102.5917892456055	-1207.037719726563	-475.3787536621095	38.32382965087891	-1153.710571289063	-266.4783020019532	93.04072570800783	-1182.71630859375	-276.1647338867188	100.6431579589844	-1223.78662109375	-394.6086730957032	107.3706817626953	-1128.925903320313	-448.0547790527345	742.3236694335939	-719.5184326171876	-409.9227600097657	688.2168579101564	-705.3535156250001	-375.9483642578126	689.3344116210939	-707.1468505859376	-433.7371826171876	610.7854003906251	-717.4483642578126	-425.4861755371095	543.0702514648439	-707.4212646484376	-370.9954528808594	513.5533447265626	-821.4470214843752	-365.5224609375001	410.0848083496095	-690.7180175781251	-430.208709716797	332.2597045898438	-656.1456909179689	-385.1576232910157	327.9003295898438	-668.9828491210939	-369.6890869140626	279.1982116699219	-699.2017822265626	-429.116180419922	102.1331939697266	-636.5789794921876	-386.5550231933595	100.8001174926758	-719.0714111328126	-469.0589599609376	37.27733993530274	-694.2814331054689	-258.0424804687501	103.1042556762696	-636.6990356445314	-272.4821166992188	105.0994720458985	-601.6235351562501	-294.3403320312501	83.96221160888673	-556.4978027343751	
